# xmcd
#
# Track frame offsets: 
#        150
#        14537
#        29417
#        43303
#        56317
#        70596
#        85153
#        98563
#        111869
#
# Disc length: 1662 seconds
#
# Revision: 0
# Processed by: cddbd v1.5.2PL0 Copyright (c) Steve Scherf et al.
# Submitted via: ExactAudioCopy v1.0b1
#
DISCID=6c067c09
DTITLE=Son House - Clarksdale Moan (1930-1942)
DYEAR=1930
DGENRE=Blues
TTITLE0=My Black Mama - part 1
TTITLE1=My Black Mama - part 2
TTITLE2=Preachin' The Blues - part 1
TTITLE3=Preachin' The Blues - part 2
TTITLE4=Dry Spell Blues - part 1
TTITLE5=Dry Spell Blues - part 2
TTITLE6=Walking Blues
TTITLE7=Clarksdale Moan
TTITLE8=Mississippi County Farm Blues
EXTD=
EXTT0=
EXTT1=
EXTT2=
EXTT3=
EXTT4=
EXTT5=
EXTT6=
EXTT7=
EXTT8=
PLAYORDER=
